<svg width="40" height="40" viewBox="0 0 40 40" fill="none" xmlns="http://www.w3.org/2000/svg">
<path d="M8.42498 5.40936C8.31521 5.28562 8.18197 5.1849 8.03298 5.11303C7.884 5.04116 7.72223 4.99958 7.55706 4.9907C7.39188 4.98181 7.22659 5.0058 7.07075 5.06126C6.91491 5.11673 6.77163 5.20258 6.64922 5.31383C6.5268 5.42507 6.42769 5.55951 6.35761 5.70935C6.28754 5.85919 6.2479 6.02144 6.24099 6.18671C6.23409 6.35198 6.26006 6.51698 6.31739 6.67214C6.37472 6.8273 6.46228 6.96954 6.57498 7.09061L9.58123 10.3984C3.90623 13.8812 1.46561 19.25 1.3578 19.4937C1.28672 19.6536 1.25 19.8266 1.25 20.0015C1.25 20.1765 1.28672 20.3495 1.3578 20.5094C1.41249 20.6328 2.73592 23.5672 5.67811 26.5094C9.59842 30.4281 14.55 32.5 20 32.5C22.8009 32.5159 25.5736 31.9393 28.1359 30.8078L31.5734 34.5906C31.6832 34.7144 31.8164 34.8151 31.9654 34.8869C32.1144 34.9588 32.2762 35.0004 32.4413 35.0093C32.6065 35.0182 32.7718 34.9942 32.9277 34.9387C33.0835 34.8832 33.2268 34.7974 33.3492 34.6861C33.4716 34.5749 33.5707 34.4405 33.6408 34.2906C33.7109 34.1408 33.7505 33.9785 33.7574 33.8133C33.7643 33.648 33.7383 33.483 33.681 33.3278C33.6237 33.1727 33.5361 33.0304 33.4234 32.9094L8.42498 5.40936ZM15.8203 17.2594L22.3312 24.4234C21.3508 24.9392 20.2267 25.1148 19.1357 24.9225C18.0446 24.7303 17.0483 24.1811 16.3031 23.3612C15.558 22.5414 15.1063 21.4972 15.0189 20.3928C14.9315 19.2884 15.2134 18.1862 15.8203 17.2594ZM20 30C15.1906 30 10.989 28.2515 7.51092 24.8047C6.08329 23.3859 4.86908 21.7675 3.90623 20C4.63905 18.6265 6.97811 14.7828 11.3047 12.2844L14.1172 15.3703C13.0283 16.7648 12.4675 18.4994 12.5339 20.2674C12.6003 22.0355 13.2897 23.7231 14.48 25.032C15.6704 26.341 17.2852 27.1869 19.039 27.4204C20.7928 27.6538 22.5727 27.2598 24.064 26.3078L26.3656 28.839C24.3343 29.6184 22.1756 30.0121 20 30ZM20.9375 15.089C20.6118 15.0269 20.3241 14.8379 20.1377 14.5636C19.9514 14.2893 19.8816 13.9523 19.9437 13.6265C20.0059 13.3008 20.1949 13.0131 20.4692 12.8268C20.7434 12.6404 21.0805 12.5706 21.4062 12.6328C22.9994 12.9417 24.45 13.7572 25.5417 14.9579C26.6334 16.1586 27.3077 17.68 27.464 19.2953C27.4949 19.6254 27.3934 19.9542 27.1818 20.2094C26.9703 20.4646 26.666 20.6254 26.3359 20.6562C26.2969 20.6585 26.2578 20.6585 26.2187 20.6562C25.9063 20.6576 25.6047 20.5419 25.3733 20.3319C25.142 20.1219 24.9976 19.833 24.9687 19.5219C24.8635 18.4475 24.4144 17.4357 23.6881 16.6371C22.9618 15.8384 21.9971 15.2955 20.9375 15.089ZM38.6375 20.5094C38.5719 20.6562 36.989 24.1609 33.425 27.3531C33.3032 27.4657 33.1602 27.5529 33.0044 27.6096C32.8486 27.6664 32.6831 27.6916 32.5174 27.6837C32.3518 27.6759 32.1894 27.6351 32.0396 27.5639C31.8899 27.4927 31.7558 27.3924 31.6452 27.2688C31.5346 27.1453 31.4497 27.0009 31.3954 26.8442C31.3412 26.6875 31.3186 26.5216 31.3291 26.3561C31.3396 26.1906 31.3829 26.0289 31.4565 25.8803C31.5301 25.7317 31.6325 25.5992 31.7578 25.4906C33.5063 23.9197 34.9751 22.0631 36.1015 20C35.1366 18.2309 33.9197 16.6114 32.489 15.1922C29.0109 11.7484 24.8094 9.99998 20 9.99998C18.9866 9.99875 17.9749 10.0808 16.975 10.2453C16.8124 10.2741 16.6457 10.2703 16.4845 10.2343C16.3234 10.1982 16.171 10.1306 16.0361 10.0354C15.9012 9.94009 15.7866 9.81904 15.6988 9.67921C15.6109 9.53937 15.5517 9.38352 15.5244 9.22065C15.4972 9.05779 15.5025 8.89114 15.54 8.73033C15.5775 8.56953 15.6465 8.41775 15.7431 8.28377C15.8396 8.14978 15.9617 8.03625 16.1023 7.94973C16.243 7.86321 16.3994 7.80541 16.5625 7.77967C17.6987 7.59207 18.8484 7.49852 20 7.49998C25.45 7.49998 30.4015 9.57186 34.3219 13.4922C37.264 16.4344 38.5875 19.3703 38.6422 19.4937C38.7132 19.6536 38.75 19.8266 38.75 20.0015C38.75 20.1765 38.7132 20.3495 38.6422 20.5094H38.6375Z" fill="#5F5D5D"/>
</svg>
