<svg width="27" height="27" viewBox="0 0 27 27" fill="none" xmlns="http://www.w3.org/2000/svg">
<path d="M13.3111 17.9769C15.5875 17.9769 17.4329 16.1548 17.4329 13.9072C17.4329 11.6595 15.5875 9.8374 13.3111 9.8374C11.0346 9.8374 9.18921 11.6595 9.18921 13.9072C9.18921 16.1548 11.0346 17.9769 13.3111 17.9769Z" stroke="white" stroke-opacity="0.49" stroke-width="2" stroke-miterlimit="10"/>
<path d="M17.8451 4.54639H8.77702C6.04529 4.54639 3.83078 6.7329 3.83078 9.43011V18.3836C3.83078 21.0808 6.04529 23.2673 8.77702 23.2673H17.8451C20.5768 23.2673 22.7914 21.0808 22.7914 18.3836V9.43011C22.7914 6.7329 20.5768 4.54639 17.8451 4.54639Z" stroke="white" stroke-opacity="0.49" stroke-width="2" stroke-linecap="round" stroke-linejoin="round"/>
<path d="M18.6695 9.83737C19.3524 9.83737 19.906 9.29074 19.906 8.61644C19.906 7.94214 19.3524 7.39551 18.6695 7.39551C17.9865 7.39551 17.4329 7.94214 17.4329 8.61644C17.4329 9.29074 17.9865 9.83737 18.6695 9.83737Z" fill="white" fill-opacity="0.49"/>
</svg>
