<svg width="28" height="27" viewBox="0 0 28 27" fill="none" xmlns="http://www.w3.org/2000/svg">
<path d="M22.6037 4.54639H5.29187C4.83658 4.54639 4.4675 4.91081 4.4675 5.36034V22.4534C4.4675 22.9029 4.83658 23.2673 5.29187 23.2673H22.6037C23.059 23.2673 23.4281 22.9029 23.4281 22.4534V5.36034C23.4281 4.91081 23.059 4.54639 22.6037 4.54639Z" stroke="white" stroke-opacity="0.51" stroke-width="2" stroke-linecap="round" stroke-linejoin="round"/>
<path d="M13.1234 12.2793V18.7909" stroke="white" stroke-opacity="0.51" stroke-width="2" stroke-linecap="round" stroke-linejoin="round"/>
<path d="M9.82593 12.2793V18.7909" stroke="white" stroke-opacity="0.51" stroke-width="2" stroke-linecap="round" stroke-linejoin="round"/>
<path d="M13.1234 15.1281C13.1234 14.3726 13.4274 13.648 13.9685 13.1137C14.5096 12.5794 15.2435 12.2793 16.0087 12.2793C16.7739 12.2793 17.5078 12.5794 18.0489 13.1137C18.59 13.648 18.894 14.3726 18.894 15.1281V18.7909" stroke="white" stroke-opacity="0.51" stroke-width="2" stroke-linecap="round" stroke-linejoin="round"/>
<path d="M9.82591 10.2441C10.5088 10.2441 11.0625 9.69748 11.0625 9.02318C11.0625 8.34888 10.5088 7.80225 9.82591 7.80225C9.14298 7.80225 8.58936 8.34888 8.58936 9.02318C8.58936 9.69748 9.14298 10.2441 9.82591 10.2441Z" fill="white" fill-opacity="0.51"/>
</svg>
