<svg width="18" height="18" viewBox="0 0 18 18" fill="none" xmlns="http://www.w3.org/2000/svg">
<path d="M16.1479 15.352L12.6274 11.8322C13.6478 10.6071 14.1566 9.03585 14.048 7.4452C13.9394 5.85456 13.2218 4.36701 12.0443 3.29201C10.8669 2.21701 9.32035 1.63734 7.72641 1.67356C6.13247 1.70978 4.61386 2.35913 3.48648 3.4865C2.3591 4.61388 1.70976 6.13249 1.67354 7.72643C1.63731 9.32037 2.21699 10.8669 3.29199 12.0444C4.36699 13.2218 5.85453 13.9394 7.44518 14.048C9.03583 14.1566 10.6071 13.6478 11.8322 12.6274L15.352 16.148C15.4043 16.2002 15.4663 16.2417 15.5346 16.27C15.6029 16.2983 15.6761 16.3128 15.75 16.3128C15.8239 16.3128 15.8971 16.2983 15.9654 16.27C16.0336 16.2417 16.0957 16.2002 16.1479 16.148C16.2002 16.0957 16.2417 16.0337 16.2699 15.9654C16.2982 15.8971 16.3128 15.8239 16.3128 15.75C16.3128 15.6761 16.2982 15.6029 16.2699 15.5346C16.2417 15.4663 16.2002 15.4043 16.1479 15.352ZM2.81248 7.875C2.81248 6.87373 3.10939 5.89495 3.66566 5.06243C4.22194 4.2299 5.01259 3.58103 5.93764 3.19786C6.86269 2.81469 7.88059 2.71444 8.86262 2.90977C9.84465 3.10511 10.7467 3.58727 11.4547 4.29527C12.1627 5.00328 12.6449 5.90533 12.8402 6.88736C13.0355 7.86938 12.9353 8.88728 12.5521 9.81234C12.169 10.7374 11.5201 11.528 10.6876 12.0843C9.85503 12.6406 8.87625 12.9375 7.87498 12.9375C6.53278 12.936 5.24597 12.4022 4.29689 11.4531C3.34781 10.504 2.81397 9.2172 2.81248 7.875Z" fill="white"/>
</svg>
