<svg width="14" height="13" viewBox="0 0 14 13" fill="none" xmlns="http://www.w3.org/2000/svg">
<path d="M7.29613 10.8352L10.6882 12.9143C11.1257 13.1807 11.6641 12.7844 11.5362 12.2971L10.5536 8.56759C10.527 8.46421 10.5312 8.35569 10.5658 8.25453C10.6003 8.15337 10.6637 8.06369 10.7488 7.99582L13.7908 5.54632C14.1879 5.22795 13.986 4.58471 13.4678 4.55222L9.49693 4.30532C9.38858 4.29924 9.28442 4.26281 9.19717 4.20051C9.10992 4.1382 9.04336 4.0527 9.00562 3.95447L7.52496 0.354934C7.48577 0.250913 7.41437 0.161055 7.32045 0.0975578C7.22654 0.0340605 7.11466 0 7 0C6.88534 0 6.77346 0.0340605 6.67955 0.0975578C6.58563 0.161055 6.51423 0.250913 6.47504 0.354934L4.99438 3.95447C4.95664 4.0527 4.89008 4.1382 4.80283 4.20051C4.71558 4.26281 4.61142 4.29924 4.50307 4.30532L0.532214 4.55222C0.0139834 4.58471 -0.187925 5.22795 0.209161 5.54632L3.25124 7.99582C3.33627 8.06369 3.3997 8.15337 3.43423 8.25453C3.46876 8.35569 3.47299 8.46421 3.44642 8.56759L2.53783 12.0242C2.38304 12.6089 3.02914 13.0832 3.54737 12.7649L6.70387 10.8352C6.79238 10.7808 6.89511 10.752 7 10.752C7.10489 10.752 7.20762 10.7808 7.29613 10.8352V10.8352Z" fill="#F8A401"/>
</svg>
