<svg width="40" height="40" viewBox="0 0 40 40" fill="none" xmlns="http://www.w3.org/2000/svg">
<path d="M5 11.6667C5 10.7827 5.35119 9.93481 5.97631 9.30968C6.60143 8.68456 7.44928 8.33337 8.33333 8.33337H31.6667C32.5507 8.33337 33.3986 8.68456 34.0237 9.30968C34.6488 9.93481 35 10.7827 35 11.6667M5 11.6667V28.3334C5 29.2174 5.35119 30.0653 5.97631 30.6904C6.60143 31.3155 7.44928 31.6667 8.33333 31.6667H31.6667C32.5507 31.6667 33.3986 31.3155 34.0237 30.6904C34.6488 30.0653 35 29.2174 35 28.3334V11.6667M5 11.6667L20 21.6667L35 11.6667" stroke="#5F5D5D" stroke-width="2" stroke-linecap="round" stroke-linejoin="round"/>
</svg>
