<svg width="92" height="92" viewBox="0 0 92 92" fill="none" xmlns="http://www.w3.org/2000/svg">
<circle cx="46.0589" cy="45.7303" r="45.5823" fill="#077EFF"/>
<g filter="url(#filter0_d_73_674)">
<path d="M46.0598 45.7303C51.0947 45.7303 55.1763 41.6488 55.1763 36.6139C55.1763 31.579 51.0947 27.4974 46.0598 27.4974C41.0249 27.4974 36.9434 31.579 36.9434 36.6139C36.9434 41.6488 41.0249 45.7303 46.0598 45.7303Z" fill="white"/>
</g>
<g filter="url(#filter1_d_73_674)">
<path d="M46.0601 50.2886C36.9254 50.2886 29.4863 56.4148 29.4863 63.9633C29.4863 64.4738 29.8875 64.8749 30.398 64.8749H61.7222C62.2327 64.8749 62.6338 64.4738 62.6338 63.9633C62.6338 56.4148 55.1948 50.2886 46.0601 50.2886Z" fill="white"/>
</g>
<defs>
<filter id="filter0_d_73_674" x="35.1201" y="25.6741" width="25.5256" height="25.5261" filterUnits="userSpaceOnUse" color-interpolation-filters="sRGB">
<feFlood flood-opacity="0" result="BackgroundImageFix"/>
<feColorMatrix in="SourceAlpha" type="matrix" values="0 0 0 0 0 0 0 0 0 0 0 0 0 0 0 0 0 0 127 0" result="hardAlpha"/>
<feOffset dx="1.82329" dy="1.82329"/>
<feGaussianBlur stdDeviation="1.82329"/>
<feComposite in2="hardAlpha" operator="out"/>
<feColorMatrix type="matrix" values="0 0 0 0 0.439216 0 0 0 0 0.396078 0 0 0 0 0.941176 0 0 0 0.1 0"/>
<feBlend mode="normal" in2="BackgroundImageFix" result="effect1_dropShadow_73_674"/>
<feBlend mode="normal" in="SourceGraphic" in2="effect1_dropShadow_73_674" result="shape"/>
</filter>
<filter id="filter1_d_73_674" x="27.663" y="48.4653" width="40.4416" height="21.8795" filterUnits="userSpaceOnUse" color-interpolation-filters="sRGB">
<feFlood flood-opacity="0" result="BackgroundImageFix"/>
<feColorMatrix in="SourceAlpha" type="matrix" values="0 0 0 0 0 0 0 0 0 0 0 0 0 0 0 0 0 0 127 0" result="hardAlpha"/>
<feOffset dx="1.82329" dy="1.82329"/>
<feGaussianBlur stdDeviation="1.82329"/>
<feComposite in2="hardAlpha" operator="out"/>
<feColorMatrix type="matrix" values="0 0 0 0 0.439216 0 0 0 0 0.396078 0 0 0 0 0.941176 0 0 0 0.1 0"/>
<feBlend mode="normal" in2="BackgroundImageFix" result="effect1_dropShadow_73_674"/>
<feBlend mode="normal" in="SourceGraphic" in2="effect1_dropShadow_73_674" result="shape"/>
</filter>
</defs>
</svg>
